<?xml version="1.0" standalone="no"?><!DOCTYPE svg PUBLIC "-//W3C//DTD SVG 1.1//EN" "http://www.w3.org/Graphics/SVG/1.1/DTD/svg11.dtd"><svg t="1621005702176" class="icon" viewBox="0 0 1025 1024" version="1.1" xmlns="http://www.w3.org/2000/svg" p-id="6600" xmlns:xlink="http://www.w3.org/1999/xlink" width="200.1953125" height="200"><defs><style type="text/css"></style></defs><path d="M957.372377 395.732962H68.678076a68.678076 68.678076 0 0 1-35.849956-126.779727L433.221302 22.673655a151.778548 151.778548 0 0 1 159.607848 0l400.393182 246.27958a68.678076 68.678076 0 0 1-35.849955 126.779727zM92.715402 320.461791h840.482292l-379.927115-233.505457a76.782089 76.782089 0 0 0-80.628061 0L453.2753 54.95235l19.779286 32.003984zM960.256856 1024H56.728091a37.635586 37.635586 0 0 1 0-75.271171h903.528765a37.635586 37.635586 0 0 1 0 75.271171zM175.266449 845.711715A37.772942 37.772942 0 0 1 137.356152 807.938773V537.759223a37.635586 37.635586 0 0 1 75.271171 0v270.17955a37.772942 37.772942 0 0 1-37.360874 37.772942zM848.586305 845.711715A37.772942 37.772942 0 0 1 810.401295 807.938773V537.759223a37.635586 37.635586 0 1 1 75.271171 0v270.17955a37.635586 37.635586 0 0 1-37.086161 37.772942z" fill="#0060F7" p-id="6601"></path><path d="M511.926377 845.711715a37.772942 37.772942 0 0 1-37.635585-37.772942V537.759223a37.635586 37.635586 0 1 1 75.271171 0v270.17955a37.772942 37.772942 0 0 1-37.635586 37.772942z" fill="#FF4B9D" p-id="6602"></path></svg>