<?xml version="1.0" standalone="no"?><!DOCTYPE svg PUBLIC "-//W3C//DTD SVG 1.1//EN" "http://www.w3.org/Graphics/SVG/1.1/DTD/svg11.dtd"><svg t="1622820222670" class="icon" viewBox="0 0 1024 1024" version="1.1" xmlns="http://www.w3.org/2000/svg" p-id="2490" xmlns:xlink="http://www.w3.org/1999/xlink" width="200" height="200"><defs><style type="text/css"></style></defs><path d="M512 1024C230.4 1024 0 793.6 0 512S230.4 0 512 0s512 230.4 512 512-230.4 512-512 512z m0-967.111111C264.533333 56.888889 56.888889 264.533333 56.888889 512s207.644444 455.111111 455.111111 455.111111 455.111111-207.644444 455.111111-455.111111S759.466667 56.888889 512 56.888889z m187.733333 625.777778c-19.911111 25.6-42.666667 2.844444-45.511111 0L341.333333 369.777778c-11.377778-11.377778-22.755556-25.6-11.377777-39.822222 11.377778-11.377778 34.133333-11.377778 45.511111 0l318.577777 318.577777c8.533333 8.533333 14.222222 25.6 5.688889 34.133334z m-5.688889-307.2L375.466667 694.044444c-5.688889 5.688889-14.222222 8.533333-22.755556 8.533334-28.444444-2.844444-22.755556-36.977778-11.377778-48.355556l312.888889-312.888889c11.377778-11.377778 25.6-22.755556 39.822222-11.377777 11.377778 14.222222 11.377778 34.133333 0 45.511111z" fill="#545E68" p-id="2491"></path></svg>