<?xml version="1.0" standalone="no"?><!DOCTYPE svg PUBLIC "-//W3C//DTD SVG 1.1//EN" "http://www.w3.org/Graphics/SVG/1.1/DTD/svg11.dtd"><svg t="1620988109559" class="icon" viewBox="0 0 1251 1024" version="1.1" xmlns="http://www.w3.org/2000/svg" p-id="27838" xmlns:xlink="http://www.w3.org/1999/xlink" width="244.3359375" height="200"><defs><style type="text/css"></style></defs><path d="M81.464889 617.244444l1.877333 1.024 36.807111 29.923556c2.275556 1.877333 2.616889 5.347556 0.796445 7.623111a34.019556 34.019556 0 0 0-1.592889 41.984l3.868444 4.664889L499.484444 908.515556l2.56 2.275555c16.839111 15.246222 44.373333 16.611556 63.146667 4.209778l5.404445-4.152889 2.503111-2.275556 0.568889-0.341333 108.202666-59.278222c8.021333 17.92 17.749333 34.929778 28.956445 50.744889l-103.879111 56.888889a109.795556 109.795556 0 0 1-70.542223 24.917333 110.933333 110.933333 0 0 1-63.032889-19.228444l-7.509333-5.688889-377.002667-206.506667-2.503111-2.275556c-38.001778-34.133333-42.552889-89.6-10.695111-128.796444a5.461333 5.461333 0 0 1 5.688889-1.763556z m876.657778-130.787555a239.104 239.104 0 1 1-0.113778 478.208 239.104 239.104 0 0 1 0.056889-478.208z m145.692444 253.44H945.493333v141.653333h24.234667v-13.994666h109.909333v13.994666h24.234667v-141.653333z m-221.525333-170.325333h-24.576v62.464h-43.690667v23.552h43.690667v77.482666c-13.482667 5.12-26.225778 9.329778-38.343111 12.629334l-11.832889 3.072 6.485333 25.6c9.272889-3.072 18.830222-6.428444 28.672-10.24l15.018667-5.802667v83.968c0 9.102222-4.551111 13.653333-13.653334 13.653333-3.527111 0-8.305778-0.170667-14.336-0.568889l-13.653333-0.796444 5.12 23.893333h31.402667c17.635556 0 27.363556-7.964444 29.354666-23.779555l0.341334-6.257778v-100.693333c9.102222-4.266667 17.635556-8.476444 25.486222-12.629334l11.377778-6.144v-24.917333a501.077333 501.077333 0 0 1-23.665778 12.401778l-13.198222 6.371555v-67.242666h40.277333v-23.552h-40.277333v-62.464z m197.290666 194.218666v80.213334h-109.909333v-80.213334h109.909333zM81.464889 413.354667l1.877333 0.967111 36.807111 29.923555c2.275556 1.820444 2.616889 5.347556 0.796445 7.623111a34.019556 34.019556 0 0 0-1.592889 41.984l3.868444 4.664889 376.32 206.108445 2.56 2.275555c16.839111 15.246222 44.373333 16.611556 63.146667 4.152889l5.404444-4.096 2.503112-2.275555 0.568888-0.341334 90.225778-49.493333a303.217778 303.217778 0 0 0-8.305778 70.712889v0.398222l-48.753777 26.737778a109.795556 109.795556 0 0 1-70.542223 24.860444 110.933333 110.933333 0 0 1-63.032888-19.171555l-7.509334-5.688889L88.803556 546.133333l-2.503112-2.275555c-38.001778-34.133333-42.666667-89.656889-10.581333-128.853334a5.461333 5.461333 0 0 1 5.688889-1.706666z m1027.128889 170.211555h-170.325334v23.210667h58.026667c-4.778667 24.348444-11.605333 43.918222-20.48 58.709333-8.305778 12.856889-20.48 24.974222-36.408889 36.295111l-10.012444 6.712889 14.677333 19.456c23.665778-15.701333 41.415111-33.109333 53.248-52.224 8.362667-14.791111 15.018667-33.223111 20.081778-55.296l2.844444-13.653333h64.455111c-0.682667 40.504889-2.730667 65.536-6.144 75.093333-2.844444 7.964444-8.817778 12.8-17.976888 14.620445l-5.916445 0.739555-27.306667-1.706666 5.802667 21.845333c13.653333 0.910222 22.528 1.365333 26.624 1.365333 17.521778 0 30.037333-6.371556 37.546667-19.114666 6.826667-12.060444 10.524444-46.307556 11.207111-102.684445l0.056889-13.368889zM584.021333 57.457778l6.144 5.006222 376.832 201.557333c26.965333 24.234667 29.354667 62.008889 7.623111 88.746667l-3.584 4.209778-4.039111 3.868444-59.505777 32.540445-317.326223 173.738666c-27.704889 24.974222-71.566222 26.624-101.432889 5.006223l-6.200888-5.006223-317.269334-173.738666-59.505778-32.540445a76.117333 76.117333 0 0 1-7.68-8.078222 63.203556 63.203556 0 0 1 2.275556-83.342222l5.404444-5.404445L482.531556 62.577778C510.293333 37.546667 554.154667 35.896889 584.021333 57.514667z" fill="#676AFF" p-id="27839"></path></svg>