<?xml version="1.0" standalone="no"?><!DOCTYPE svg PUBLIC "-//W3C//DTD SVG 1.1//EN" "http://www.w3.org/Graphics/SVG/1.1/DTD/svg11.dtd"><svg t="1620989262034" class="icon" viewBox="0 0 1024 1024" version="1.1" xmlns="http://www.w3.org/2000/svg" p-id="30141" xmlns:xlink="http://www.w3.org/1999/xlink" width="200" height="200"><defs><style type="text/css"></style></defs><path d="M898.6 188.1H124.9c-33.8 0-61.4 27.5-61.4 61.4V779c0 33.8 27.5 61.4 61.4 61.4h773.7c33.8 0 61.4-27.5 61.4-61.4V249.4c0-33.8-27.5-61.3-61.4-61.3z m-773.7 57.3h773.7c2.2 0 4 1.8 4 4v102.8H120.9V249.4c0-2.2 1.8-4 4-4z m773.7 537.5H124.9c-2.2 0-4-1.8-4-4V409.5h781.8v369.4c0 2.2-1.9 4-4.1 4z" fill="#FC592D" p-id="30142"></path><path d="M368.3 681.8H231.1c-10.6 0-19.2-8.6-19.2-19.2v-19c0-10.6 8.6-19.2 19.2-19.2h137.2c10.6 0 19.2 8.6 19.2 19.2v19c0 10.7-8.6 19.2-19.2 19.2z" fill="#FFCE00" p-id="30143"></path></svg>