<?xml version="1.0" standalone="no"?><!DOCTYPE svg PUBLIC "-//W3C//DTD SVG 1.1//EN" "http://www.w3.org/Graphics/SVG/1.1/DTD/svg11.dtd"><svg t="1620973333284" class="icon" viewBox="0 0 1024 1024" version="1.1" xmlns="http://www.w3.org/2000/svg" p-id="4749" xmlns:xlink="http://www.w3.org/1999/xlink" width="200" height="200"><defs><style type="text/css"></style></defs><path d="M494.77 942.03c-52.93 0-104.3-10.37-152.67-30.83-46.71-19.75-88.64-48.03-124.65-84.04-36.01-36.01-64.28-77.95-84.04-124.65-20.46-48.37-30.83-99.74-30.83-152.67 0-52.93 10.37-104.3 30.83-152.67 19.75-46.71 48.03-88.65 84.04-124.65 36.01-36.01 77.95-64.28 124.65-84.04 48.37-20.46 99.74-30.83 152.67-30.83h30v362.19h362.19v30c0 52.93-10.37 104.3-30.83 152.67-19.75 46.71-48.03 88.64-84.04 124.65-36.01 36.01-77.95 64.28-124.65 84.04-48.38 20.45-99.74 30.83-152.67 30.83z m-30-723.04C295.59 234.2 162.58 376.77 162.58 549.84c0 183.17 149.02 332.19 332.19 332.19 173.06 0 315.64-133.02 330.85-302.19H464.77V218.99z" fill="#64A0CF" p-id="4750"></path><path d="M556.22 493.37v-381.4c210.64 0 381.4 170.76 381.4 381.4h-381.4z" fill="#9EEFD9" p-id="4751"></path></svg>