<?xml version="1.0" standalone="no"?><!DOCTYPE svg PUBLIC "-//W3C//DTD SVG 1.1//EN" "http://www.w3.org/Graphics/SVG/1.1/DTD/svg11.dtd"><svg t="1620986078754" class="icon" viewBox="0 0 1024 1024" version="1.1" xmlns="http://www.w3.org/2000/svg" p-id="17155" xmlns:xlink="http://www.w3.org/1999/xlink" width="200" height="200"><defs><style type="text/css"></style></defs><path d="M512 512m-448 0a448 448 0 1 0 896 0 448 448 0 1 0-896 0Z" fill="#4565ED" p-id="17156"></path><path d="M512 512m-448 0a448 448 0 1 0 896 0 448 448 0 1 0-896 0Z" fill="#D9EDFF" p-id="17157"></path><path d="M885.1 760H138.9C219.1 880.6 356.3 960 512 960s292.9-79.4 373.1-200z" fill="#0285FF" p-id="17158"></path><path d="M773.1 760h-240V392h220c11 0 20 9 20 20v348z" fill="#88C6FF" p-id="17159"></path><path d="M662.3 759.7h-300v-440c0-11 9-20 20-20h260c11 0 20 9 20 20v440z" fill="#0285FF" p-id="17160"></path><path d="M415 350h70v42h-70zM535 350h70v42h-70zM415 422h70v42h-70zM535 422h70v42h-70zM415 494h70v42h-70zM535 494h70v42h-70zM415 566h70v42h-70zM535 566h70v42h-70zM415 638h70v42h-70zM535 638h70v42h-70zM685 425h60v36h-60zM685 497h60v36h-60zM685 569h60v36h-60zM685 641h60v36h-60z" fill="#FFEC16" p-id="17161"></path><path d="M220.2 580h20v180h-20z" fill="#88C6FF" p-id="17162"></path><path d="M161.8 611.2l68.4-62.2 68.3 62.2z" fill="#0285FF" p-id="17163"></path><path d="M155.6 651.6l74.6-67.9 74.6 67.9z" fill="#0285FF" p-id="17164"></path><path d="M147.8 696.1l82.4-75 82.3 75z" fill="#0285FF" p-id="17165"></path></svg>