<?xml version="1.0" standalone="no"?><!DOCTYPE svg PUBLIC "-//W3C//DTD SVG 1.1//EN" "http://www.w3.org/Graphics/SVG/1.1/DTD/svg11.dtd"><svg t="1620988618930" class="icon" viewBox="0 0 1024 1024" version="1.1" xmlns="http://www.w3.org/2000/svg" p-id="29099" xmlns:xlink="http://www.w3.org/1999/xlink" width="200" height="200"><defs><style type="text/css"></style></defs><path d="M993.963287 0h-963.770182a32.768 32.768 0 0 0-30.138181 34.909091v69.818182a32.791273 32.791273 0 0 0 30.138181 34.909091h963.770182a32.768 32.768 0 0 0 30.091637-34.909091v-69.818182a32.768 32.768 0 0 0-30.091637-34.909091z" fill="#EA8E4F" p-id="29100"></path><path d="M93.145833 209.454545v698.554182a16.779636 16.779636 0 0 0 13.102545 16.058182l401.338182 99.397818a18.618182 18.618182 0 0 0 8.890182 0l401.361454-99.397818a16.779636 16.779636 0 0 0 13.102546-16.058182v-698.554182z" fill="#E4774E" p-id="29101"></path><path d="M768.078196 825.041455m-23.272727 0l-465.454545 0q-23.272727 0-23.272728-23.272728l0-46.545454q0-23.272727 23.272728-23.272728l465.454545 0q23.272727 0 23.272727 23.272728l0 46.545454q0 23.272727-23.272727 23.272728Z" fill="#FFFFFF" p-id="29102"></path><path d="M526.53056 303.034182l38.167273 73.029818a22.644364 22.644364 0 0 0 17.058909 11.636364l85.364363 11.636363a21.061818 21.061818 0 0 1 12.544 36.445091l-61.78909 56.855273a20.549818 20.549818 0 0 0-6.493091 18.897454l14.568727 80.267637a22.388364 22.388364 0 0 1-32.837818 22.528l-76.381091-37.911273a23.784727 23.784727 0 0 0-21.061818 0l-76.357819 37.911273a22.411636 22.411636 0 0 1-32.86109-22.528l14.592-80.267637a20.666182 20.666182 0 0 0-6.516364-18.897454l-61.789091-56.855273a21.061818 21.061818 0 0 1 12.544-36.445091l85.364364-11.636363a22.690909 22.690909 0 0 0 17.058909-11.636364l38.167272-73.029818a23.272727 23.272727 0 0 1 40.657455 0z" fill="#FFFFFF" p-id="29103"></path></svg>