<?xml version="1.0" standalone="no"?><!DOCTYPE svg PUBLIC "-//W3C//DTD SVG 1.1//EN" "http://www.w3.org/Graphics/SVG/1.1/DTD/svg11.dtd"><svg t="1620988062604" class="icon" viewBox="0 0 1024 1024" version="1.1" xmlns="http://www.w3.org/2000/svg" p-id="24935" xmlns:xlink="http://www.w3.org/1999/xlink" width="200" height="200"><defs><style type="text/css"></style></defs><path d="M848.896 348.16h-57.856v-51.2a279.04 279.04 0 0 0-558.592 0v51.2H175.104a92.16 92.16 0 0 0-92.16 92.16v475.136a92.16 92.16 0 0 0 92.16 92.16h673.792a92.16 92.16 0 0 0 92.16-92.16V439.808a92.16 92.16 0 0 0-92.16-91.648zM307.2 295.936a204.8 204.8 0 0 1 404.992 0v51.2H307.2v-51.2z m557.056 619.52a15.36 15.36 0 0 1-15.36 15.36H175.104a15.36 15.36 0 0 1-15.36-15.36V439.808a15.36 15.36 0 0 1 15.36-15.36h673.792a15.36 15.36 0 0 1 15.36 15.36v475.136z" fill="#1F88D9" p-id="24936"></path><path d="M512 523.776A89.6 89.6 0 0 0 422.4 614.4v128a89.6 89.6 0 0 0 179.2 0V614.4A89.6 89.6 0 0 0 512 523.776z m38.4 217.6a38.4 38.4 0 0 1-76.8 0V614.4a38.4 38.4 0 0 1 76.8 0v128z" fill="#1F88D9" p-id="24937"></path></svg>